<svg width="610" height="609" viewBox="0 0 610 609" fill="none">
<g filter="url(#filter0_d)">
<path d="M306 20C306 8.9543 314.954 0 326 0H435C446.046 0 455 8.9543 455 20V129C455 140.046 446.046 149 435 149H326C314.954 149 306 140.046 306 129V20Z" fill="#6200E3"/>
</g>
<g filter="url(#filter1_d)">
<path d="M4 315C4 303.954 12.9543 295 24 295H133C144.046 295 153 303.954 153 315V424C153 435.046 144.046 444 133 444H24C12.9543 444 4 435.046 4 424V315Z" fill="#751FE7"/>
</g>
<g filter="url(#filter2_d)">
<path d="M457 169C457 157.954 465.954 149 477 149H586C597.046 149 606 157.954 606 169V278C606 289.046 597.046 298 586 298H477C465.954 298 457 289.046 457 278V169Z" fill="#751FE7"/>
</g>
<g filter="url(#filter3_d)">
<path d="M306 323C306 311.954 314.954 303 326 303H435C446.046 303 455 311.954 455 323V432C455 443.046 446.046 452 435 452H326C314.954 452 306 443.046 306 432V323Z" fill="#6200E3"/>
</g>
<g filter="url(#filter4_d)">
<path d="M153 166C153 154.954 161.954 146 173 146H282C293.046 146 302 154.954 302 166V275C302 286.046 293.046 295 282 295H173C161.954 295 153 286.046 153 275V166Z" fill="white"/>
</g>
<g filter="url(#filter5_d)">
<path d="M153 472C153 460.954 161.954 452 173 452H282C293.046 452 302 460.954 302 472V581C302 592.046 293.046 601 282 601H173C161.954 601 153 592.046 153 581V472Z" fill="white"/>
</g>
<circle cx="380.5" cy="228.5" r="74.5" fill="#FF64CB"/>
<circle cx="229.5" cy="372.5" r="74.5" fill="#00C6CC"/>
<path d="M508.06 212.94V227.28C508.06 229.5 507.43 231.21 506.17 232.41C504.93 233.61 503.25 234.21 501.13 234.21C498.91 234.21 497.13 233.58 495.79 232.32C494.45 231.06 493.78 229.27 493.78 226.95H498.88C498.88 227.83 499.06 228.5 499.42 228.96C499.78 229.4 500.3 229.62 500.98 229.62C501.6 229.62 502.08 229.42 502.42 229.02C502.76 228.62 502.93 228.04 502.93 227.28V212.94H508.06ZM511.184 225.6C511.184 223.88 511.504 222.37 512.144 221.07C512.804 219.77 513.694 218.77 514.814 218.07C515.934 217.37 517.184 217.02 518.564 217.02C519.744 217.02 520.774 217.26 521.654 217.74C522.554 218.22 523.244 218.85 523.724 219.63V217.26H528.854V234H523.724V231.63C523.224 232.41 522.524 233.04 521.624 233.52C520.744 234 519.714 234.24 518.534 234.24C517.174 234.24 515.934 233.89 514.814 233.19C513.694 232.47 512.804 231.46 512.144 230.16C511.504 228.84 511.184 227.32 511.184 225.6ZM523.724 225.63C523.724 224.35 523.364 223.34 522.644 222.6C521.944 221.86 521.084 221.49 520.064 221.49C519.044 221.49 518.174 221.86 517.454 222.6C516.754 223.32 516.404 224.32 516.404 225.6C516.404 226.88 516.754 227.9 517.454 228.66C518.174 229.4 519.044 229.77 520.064 229.77C521.084 229.77 521.944 229.4 522.644 228.66C523.364 227.92 523.724 226.91 523.724 225.63ZM540.095 229.2L543.725 217.26H549.185L543.245 234H536.915L530.975 217.26H536.465L540.095 229.2ZM550.324 225.6C550.324 223.88 550.644 222.37 551.284 221.07C551.944 219.77 552.834 218.77 553.954 218.07C555.074 217.37 556.324 217.02 557.704 217.02C558.884 217.02 559.914 217.26 560.794 217.74C561.694 218.22 562.384 218.85 562.864 219.63V217.26H567.994V234H562.864V231.63C562.364 232.41 561.664 233.04 560.764 233.52C559.884 234 558.854 234.24 557.674 234.24C556.314 234.24 555.074 233.89 553.954 233.19C552.834 232.47 551.944 231.46 551.284 230.16C550.644 228.84 550.324 227.32 550.324 225.6ZM562.864 225.63C562.864 224.35 562.504 223.34 561.784 222.6C561.084 221.86 560.224 221.49 559.204 221.49C558.184 221.49 557.314 221.86 556.594 222.6C555.894 223.32 555.544 224.32 555.544 225.6C555.544 226.88 555.894 227.9 556.594 228.66C557.314 229.4 558.184 229.77 559.204 229.77C560.224 229.77 561.084 229.4 561.784 228.66C562.504 227.92 562.864 226.91 562.864 225.63Z" fill="#FF64CB"/>
<path d="M349.136 62.396H343.634L342.752 65H338.993L344.327 50.258H348.485L353.819 65H350.018L349.136 62.396ZM348.212 59.624L346.385 54.227L344.579 59.624H348.212ZM362.582 53.156C363.954 53.156 365.046 53.604 365.858 54.5C366.684 55.382 367.097 56.6 367.097 58.154V65H363.527V58.637C363.527 57.853 363.324 57.244 362.918 56.81C362.512 56.376 361.966 56.159 361.28 56.159C360.594 56.159 360.048 56.376 359.642 56.81C359.236 57.244 359.033 57.853 359.033 58.637V65H355.442V53.282H359.033V54.836C359.397 54.318 359.887 53.912 360.503 53.618C361.119 53.31 361.812 53.156 362.582 53.156ZM368.879 59.12C368.879 57.916 369.103 56.859 369.551 55.949C370.013 55.039 370.636 54.339 371.42 53.849C372.204 53.359 373.079 53.114 374.045 53.114C374.815 53.114 375.515 53.275 376.145 53.597C376.789 53.919 377.293 54.353 377.657 54.899V49.46H381.248V65H377.657V63.32C377.321 63.88 376.838 64.328 376.208 64.664C375.592 65 374.871 65.168 374.045 65.168C373.079 65.168 372.204 64.923 371.42 64.433C370.636 63.929 370.013 63.222 369.551 62.312C369.103 61.388 368.879 60.324 368.879 59.12ZM377.657 59.141C377.657 58.245 377.405 57.538 376.901 57.02C376.411 56.502 375.809 56.243 375.095 56.243C374.381 56.243 373.772 56.502 373.268 57.02C372.778 57.524 372.533 58.224 372.533 59.12C372.533 60.016 372.778 60.73 373.268 61.262C373.772 61.78 374.381 62.039 375.095 62.039C375.809 62.039 376.411 61.78 376.901 61.262C377.405 60.744 377.657 60.037 377.657 59.141ZM387.436 55.235C387.856 54.591 388.381 54.087 389.011 53.723C389.641 53.345 390.341 53.156 391.111 53.156V56.957H390.124C389.228 56.957 388.556 57.153 388.108 57.545C387.66 57.923 387.436 58.595 387.436 59.561V65H383.845V53.282H387.436V55.235ZM398.162 65.168C397.014 65.168 395.978 64.923 395.054 64.433C394.144 63.943 393.423 63.243 392.891 62.333C392.373 61.423 392.114 60.359 392.114 59.141C392.114 57.937 392.38 56.88 392.912 55.97C393.444 55.046 394.172 54.339 395.096 53.849C396.02 53.359 397.056 53.114 398.204 53.114C399.352 53.114 400.388 53.359 401.312 53.849C402.236 54.339 402.964 55.046 403.496 55.97C404.028 56.88 404.294 57.937 404.294 59.141C404.294 60.345 404.021 61.409 403.475 62.333C402.943 63.243 402.208 63.943 401.27 64.433C400.346 64.923 399.31 65.168 398.162 65.168ZM398.162 62.06C398.848 62.06 399.429 61.808 399.905 61.304C400.395 60.8 400.64 60.079 400.64 59.141C400.64 58.203 400.402 57.482 399.926 56.978C399.464 56.474 398.89 56.222 398.204 56.222C397.504 56.222 396.923 56.474 396.461 56.978C395.999 57.468 395.768 58.189 395.768 59.141C395.768 60.079 395.992 60.8 396.44 61.304C396.902 61.808 397.476 62.06 398.162 62.06ZM408.005 52.064C407.375 52.064 406.857 51.882 406.451 51.518C406.059 51.14 405.863 50.678 405.863 50.132C405.863 49.572 406.059 49.11 406.451 48.746C406.857 48.368 407.375 48.179 408.005 48.179C408.621 48.179 409.125 48.368 409.517 48.746C409.923 49.11 410.126 49.572 410.126 50.132C410.126 50.678 409.923 51.14 409.517 51.518C409.125 51.882 408.621 52.064 408.005 52.064ZM409.79 53.282V65H406.199V53.282H409.79ZM411.678 59.12C411.678 57.916 411.902 56.859 412.35 55.949C412.812 55.039 413.435 54.339 414.219 53.849C415.003 53.359 415.878 53.114 416.844 53.114C417.614 53.114 418.314 53.275 418.944 53.597C419.588 53.919 420.092 54.353 420.456 54.899V49.46H424.047V65H420.456V63.32C420.12 63.88 419.637 64.328 419.007 64.664C418.391 65 417.67 65.168 416.844 65.168C415.878 65.168 415.003 64.923 414.219 64.433C413.435 63.929 412.812 63.222 412.35 62.312C411.902 61.388 411.678 60.324 411.678 59.12ZM420.456 59.141C420.456 58.245 420.204 57.538 419.7 57.02C419.21 56.502 418.608 56.243 417.894 56.243C417.18 56.243 416.571 56.502 416.067 57.02C415.577 57.524 415.332 58.224 415.332 59.12C415.332 60.016 415.577 60.73 416.067 61.262C416.571 61.78 417.18 62.039 417.894 62.039C418.608 62.039 419.21 61.78 419.7 61.262C420.204 60.744 420.456 60.037 420.456 59.141ZM315.848 82.258C317.402 82.258 318.76 82.566 319.922 83.182C321.084 83.798 321.98 84.666 322.61 85.786C323.254 86.892 323.576 88.173 323.576 89.629C323.576 91.071 323.254 92.352 322.61 93.472C321.98 94.592 321.077 95.46 319.901 96.076C318.739 96.692 317.388 97 315.848 97H310.325V82.258H315.848ZM315.617 93.892C316.975 93.892 318.032 93.521 318.788 92.779C319.544 92.037 319.922 90.987 319.922 89.629C319.922 88.271 319.544 87.214 318.788 86.458C318.032 85.702 316.975 85.324 315.617 85.324H313.916V93.892H315.617ZM336.629 90.952C336.629 91.288 336.608 91.638 336.566 92.002H328.439C328.495 92.73 328.726 93.29 329.132 93.682C329.552 94.06 330.063 94.249 330.665 94.249C331.561 94.249 332.184 93.871 332.534 93.115H336.356C336.16 93.885 335.803 94.578 335.285 95.194C334.781 95.81 334.144 96.293 333.374 96.643C332.604 96.993 331.743 97.168 330.791 97.168C329.643 97.168 328.621 96.923 327.725 96.433C326.829 95.943 326.129 95.243 325.625 94.333C325.121 93.423 324.869 92.359 324.869 91.141C324.869 89.923 325.114 88.859 325.604 87.949C326.108 87.039 326.808 86.339 327.704 85.849C328.6 85.359 329.629 85.114 330.791 85.114C331.925 85.114 332.933 85.352 333.815 85.828C334.697 86.304 335.383 86.983 335.873 87.865C336.377 88.747 336.629 89.776 336.629 90.952ZM332.954 90.007C332.954 89.391 332.744 88.901 332.324 88.537C331.904 88.173 331.379 87.991 330.749 87.991C330.147 87.991 329.636 88.166 329.216 88.516C328.81 88.866 328.558 89.363 328.46 90.007H332.954ZM343.794 93.64L346.335 85.282H350.157L345.999 97H341.568L337.41 85.282H341.253L343.794 93.64ZM362.715 90.952C362.715 91.288 362.694 91.638 362.652 92.002H354.525C354.581 92.73 354.812 93.29 355.218 93.682C355.638 94.06 356.149 94.249 356.751 94.249C357.647 94.249 358.27 93.871 358.62 93.115H362.442C362.246 93.885 361.889 94.578 361.371 95.194C360.867 95.81 360.23 96.293 359.46 96.643C358.69 96.993 357.829 97.168 356.877 97.168C355.729 97.168 354.707 96.923 353.811 96.433C352.915 95.943 352.215 95.243 351.711 94.333C351.207 93.423 350.955 92.359 350.955 91.141C350.955 89.923 351.2 88.859 351.69 87.949C352.194 87.039 352.894 86.339 353.79 85.849C354.686 85.359 355.715 85.114 356.877 85.114C358.011 85.114 359.019 85.352 359.901 85.828C360.783 86.304 361.469 86.983 361.959 87.865C362.463 88.747 362.715 89.776 362.715 90.952ZM359.04 90.007C359.04 89.391 358.83 88.901 358.41 88.537C357.99 88.173 357.465 87.991 356.835 87.991C356.233 87.991 355.722 88.166 355.302 88.516C354.896 88.866 354.644 89.363 354.546 90.007H359.04ZM368.2 81.46V97H364.609V81.46H368.2ZM376.136 97.168C374.988 97.168 373.952 96.923 373.028 96.433C372.118 95.943 371.397 95.243 370.865 94.333C370.347 93.423 370.088 92.359 370.088 91.141C370.088 89.937 370.354 88.88 370.886 87.97C371.418 87.046 372.146 86.339 373.07 85.849C373.994 85.359 375.03 85.114 376.178 85.114C377.326 85.114 378.362 85.359 379.286 85.849C380.21 86.339 380.938 87.046 381.47 87.97C382.002 88.88 382.268 89.937 382.268 91.141C382.268 92.345 381.995 93.409 381.449 94.333C380.917 95.243 380.182 95.943 379.244 96.433C378.32 96.923 377.284 97.168 376.136 97.168ZM376.136 94.06C376.822 94.06 377.403 93.808 377.879 93.304C378.369 92.8 378.614 92.079 378.614 91.141C378.614 90.203 378.376 89.482 377.9 88.978C377.438 88.474 376.864 88.222 376.178 88.222C375.478 88.222 374.897 88.474 374.435 88.978C373.973 89.468 373.742 90.189 373.742 91.141C373.742 92.079 373.966 92.8 374.414 93.304C374.876 93.808 375.45 94.06 376.136 94.06ZM387.765 86.941C388.115 86.395 388.598 85.954 389.214 85.618C389.83 85.282 390.551 85.114 391.377 85.114C392.343 85.114 393.218 85.359 394.002 85.849C394.786 86.339 395.402 87.039 395.85 87.949C396.312 88.859 396.543 89.916 396.543 91.12C396.543 92.324 396.312 93.388 395.85 94.312C395.402 95.222 394.786 95.929 394.002 96.433C393.218 96.923 392.343 97.168 391.377 97.168C390.565 97.168 389.844 97 389.214 96.664C388.598 96.328 388.115 95.894 387.765 95.362V102.586H384.174V85.282H387.765V86.941ZM392.889 91.12C392.889 90.224 392.637 89.524 392.133 89.02C391.643 88.502 391.034 88.243 390.306 88.243C389.592 88.243 388.983 88.502 388.479 89.02C387.989 89.538 387.744 90.245 387.744 91.141C387.744 92.037 387.989 92.744 388.479 93.262C388.983 93.78 389.592 94.039 390.306 94.039C391.02 94.039 391.629 93.78 392.133 93.262C392.637 92.73 392.889 92.016 392.889 91.12ZM413.379 85.156C414.835 85.156 415.99 85.597 416.844 86.479C417.712 87.361 418.146 88.586 418.146 90.154V97H414.576V90.637C414.576 89.881 414.373 89.3 413.967 88.894C413.575 88.474 413.029 88.264 412.329 88.264C411.629 88.264 411.076 88.474 410.67 88.894C410.278 89.3 410.082 89.881 410.082 90.637V97H406.512V90.637C406.512 89.881 406.309 89.3 405.903 88.894C405.511 88.474 404.965 88.264 404.265 88.264C403.565 88.264 403.012 88.474 402.606 88.894C402.214 89.3 402.018 89.881 402.018 90.637V97H398.427V85.282H402.018V86.752C402.382 86.262 402.858 85.877 403.446 85.597C404.034 85.303 404.699 85.156 405.441 85.156C406.323 85.156 407.107 85.345 407.793 85.723C408.493 86.101 409.039 86.64 409.431 87.34C409.837 86.696 410.39 86.171 411.09 85.765C411.79 85.359 412.553 85.156 413.379 85.156ZM431.703 90.952C431.703 91.288 431.682 91.638 431.64 92.002H423.513C423.569 92.73 423.8 93.29 424.206 93.682C424.626 94.06 425.137 94.249 425.739 94.249C426.635 94.249 427.258 93.871 427.608 93.115H431.43C431.234 93.885 430.877 94.578 430.359 95.194C429.855 95.81 429.218 96.293 428.448 96.643C427.678 96.993 426.817 97.168 425.865 97.168C424.717 97.168 423.695 96.923 422.799 96.433C421.903 95.943 421.203 95.243 420.699 94.333C420.195 93.423 419.943 92.359 419.943 91.141C419.943 89.923 420.188 88.859 420.678 87.949C421.182 87.039 421.882 86.339 422.778 85.849C423.674 85.359 424.703 85.114 425.865 85.114C426.999 85.114 428.007 85.352 428.889 85.828C429.771 86.304 430.457 86.983 430.947 87.865C431.451 88.747 431.703 89.776 431.703 90.952ZM428.028 90.007C428.028 89.391 427.818 88.901 427.398 88.537C426.978 88.173 426.453 87.991 425.823 87.991C425.221 87.991 424.71 88.166 424.29 88.516C423.884 88.866 423.632 89.363 423.534 90.007H428.028ZM440.737 85.156C442.109 85.156 443.201 85.604 444.013 86.5C444.839 87.382 445.252 88.6 445.252 90.154V97H441.682V90.637C441.682 89.853 441.479 89.244 441.073 88.81C440.667 88.376 440.121 88.159 439.435 88.159C438.749 88.159 438.203 88.376 437.797 88.81C437.391 89.244 437.188 89.853 437.188 90.637V97H433.597V85.282H437.188V86.836C437.552 86.318 438.042 85.912 438.658 85.618C439.274 85.31 439.967 85.156 440.737 85.156ZM454.279 93.955V97H452.452C451.15 97 450.135 96.685 449.407 96.055C448.679 95.411 448.315 94.368 448.315 92.926V88.264H446.887V85.282H448.315V82.426H451.906V85.282H454.258V88.264H451.906V92.968C451.906 93.318 451.99 93.57 452.158 93.724C452.326 93.878 452.606 93.955 452.998 93.955H454.279Z" fill="white"/>
<path d="M351.396 346.94C353.616 346.94 355.556 347.38 357.216 348.26C358.876 349.14 360.156 350.38 361.056 351.98C361.976 353.56 362.436 355.39 362.436 357.47C362.436 359.53 361.976 361.36 361.056 362.96C360.156 364.56 358.866 365.8 357.186 366.68C355.526 367.56 353.596 368 351.396 368H343.506V346.94H351.396ZM351.066 363.56C353.006 363.56 354.516 363.03 355.596 361.97C356.676 360.91 357.216 359.41 357.216 357.47C357.216 355.53 356.676 354.02 355.596 352.94C354.516 351.86 353.006 351.32 351.066 351.32H348.636V363.56H351.066ZM364.283 359.6C364.283 357.88 364.603 356.37 365.243 355.07C365.903 353.77 366.793 352.77 367.913 352.07C369.033 351.37 370.283 351.02 371.663 351.02C372.843 351.02 373.873 351.26 374.753 351.74C375.653 352.22 376.343 352.85 376.823 353.63V351.26H381.953V368H376.823V365.63C376.323 366.41 375.623 367.04 374.723 367.52C373.843 368 372.813 368.24 371.633 368.24C370.273 368.24 369.033 367.89 367.913 367.19C366.793 366.47 365.903 365.46 365.243 364.16C364.603 362.84 364.283 361.32 364.283 359.6ZM376.823 359.63C376.823 358.35 376.463 357.34 375.743 356.6C375.043 355.86 374.183 355.49 373.163 355.49C372.143 355.49 371.273 355.86 370.553 356.6C369.853 357.32 369.503 358.32 369.503 359.6C369.503 360.88 369.853 361.9 370.553 362.66C371.273 363.4 372.143 363.77 373.163 363.77C374.183 363.77 375.043 363.4 375.743 362.66C376.463 361.92 376.823 360.91 376.823 359.63ZM394.995 363.65V368H392.385C390.525 368 389.075 367.55 388.035 366.65C386.995 365.73 386.475 364.24 386.475 362.18V355.52H384.435V351.26H386.475V347.18H391.605V351.26H394.965V355.52H391.605V362.24C391.605 362.74 391.725 363.1 391.965 363.32C392.205 363.54 392.605 363.65 393.165 363.65H394.995ZM396.832 359.6C396.832 357.88 397.152 356.37 397.792 355.07C398.452 353.77 399.342 352.77 400.462 352.07C401.582 351.37 402.832 351.02 404.212 351.02C405.392 351.02 406.422 351.26 407.302 351.74C408.202 352.22 408.892 352.85 409.372 353.63V351.26H414.502V368H409.372V365.63C408.872 366.41 408.172 367.04 407.272 367.52C406.392 368 405.362 368.24 404.182 368.24C402.822 368.24 401.582 367.89 400.462 367.19C399.342 366.47 398.452 365.46 397.792 364.16C397.152 362.84 396.832 361.32 396.832 359.6ZM409.372 359.63C409.372 358.35 409.012 357.34 408.292 356.6C407.592 355.86 406.732 355.49 405.712 355.49C404.692 355.49 403.822 355.86 403.102 356.6C402.402 357.32 402.052 358.32 402.052 359.6C402.052 360.88 402.402 361.9 403.102 362.66C403.822 363.4 404.692 363.77 405.712 363.77C406.732 363.77 407.592 363.4 408.292 362.66C409.012 361.92 409.372 360.91 409.372 359.63ZM334.263 409.28H326.403L325.143 413H319.773L327.393 391.94H333.333L340.953 413H335.523L334.263 409.28ZM332.943 405.32L330.333 397.61L327.753 405.32H332.943ZM353.472 396.08C355.432 396.08 356.992 396.72 358.152 398C359.332 399.26 359.922 401 359.922 403.22V413H354.822V403.91C354.822 402.79 354.532 401.92 353.952 401.3C353.372 400.68 352.592 400.37 351.612 400.37C350.632 400.37 349.852 400.68 349.272 401.3C348.692 401.92 348.402 402.79 348.402 403.91V413H343.272V396.26H348.402V398.48C348.922 397.74 349.622 397.16 350.502 396.74C351.382 396.3 352.372 396.08 353.472 396.08ZM362.467 404.6C362.467 402.88 362.787 401.37 363.427 400.07C364.087 398.77 364.977 397.77 366.097 397.07C367.217 396.37 368.467 396.02 369.847 396.02C371.027 396.02 372.057 396.26 372.937 396.74C373.837 397.22 374.527 397.85 375.007 398.63V396.26H380.137V413H375.007V410.63C374.507 411.41 373.807 412.04 372.907 412.52C372.027 413 370.997 413.24 369.817 413.24C368.457 413.24 367.217 412.89 366.097 412.19C364.977 411.47 364.087 410.46 363.427 409.16C362.787 407.84 362.467 406.32 362.467 404.6ZM375.007 404.63C375.007 403.35 374.647 402.34 373.927 401.6C373.227 400.86 372.367 400.49 371.347 400.49C370.327 400.49 369.457 400.86 368.737 401.6C368.037 402.32 367.687 403.32 367.687 404.6C367.687 405.88 368.037 406.9 368.737 407.66C369.457 408.4 370.327 408.77 371.347 408.77C372.367 408.77 373.227 408.4 373.927 407.66C374.647 406.92 375.007 405.91 375.007 404.63ZM388.978 390.8V413H383.848V390.8H388.978ZM409.796 396.26L399.296 420.95H393.776L397.616 412.43L390.806 396.26H396.536L400.406 406.73L404.246 396.26H409.796ZM418.461 413.24C417.001 413.24 415.701 412.99 414.561 412.49C413.421 411.99 412.521 411.31 411.861 410.45C411.201 409.57 410.831 408.59 410.751 407.51H415.821C415.881 408.09 416.151 408.56 416.631 408.92C417.111 409.28 417.701 409.46 418.401 409.46C419.041 409.46 419.531 409.34 419.871 409.1C420.231 408.84 420.411 408.51 420.411 408.11C420.411 407.63 420.161 407.28 419.661 407.06C419.161 406.82 418.351 406.56 417.231 406.28C416.031 406 415.031 405.71 414.231 405.41C413.431 405.09 412.741 404.6 412.161 403.94C411.581 403.26 411.291 402.35 411.291 401.21C411.291 400.25 411.551 399.38 412.071 398.6C412.611 397.8 413.391 397.17 414.411 396.71C415.451 396.25 416.681 396.02 418.101 396.02C420.201 396.02 421.851 396.54 423.051 397.58C424.271 398.62 424.971 400 425.151 401.72H420.411C420.331 401.14 420.071 400.68 419.631 400.34C419.211 400 418.651 399.83 417.951 399.83C417.351 399.83 416.891 399.95 416.571 400.19C416.251 400.41 416.091 400.72 416.091 401.12C416.091 401.6 416.341 401.96 416.841 402.2C417.361 402.44 418.161 402.68 419.241 402.92C420.481 403.24 421.491 403.56 422.271 403.88C423.051 404.18 423.731 404.68 424.311 405.38C424.911 406.06 425.221 406.98 425.241 408.14C425.241 409.12 424.961 410 424.401 410.78C423.861 411.54 423.071 412.14 422.031 412.58C421.011 413.02 419.821 413.24 418.461 413.24ZM437.71 408.65V413H435.1C433.24 413 431.79 412.55 430.75 411.65C429.71 410.73 429.19 409.24 429.19 407.18V400.52H427.15V396.26H429.19V392.18H434.32V396.26H437.68V400.52H434.32V407.24C434.32 407.74 434.44 408.1 434.68 408.32C434.92 408.54 435.32 408.65 435.88 408.65H437.71Z" fill="white"/>
<path d="M22.57 358.94V363.05H13.99V367.49H20.41V371.48H13.99V380H8.86V358.94H22.57ZM30.3963 366.05C30.9963 365.13 31.7463 364.41 32.6463 363.89C33.5463 363.35 34.5463 363.08 35.6463 363.08V368.51H34.2363C32.9563 368.51 31.9963 368.79 31.3563 369.35C30.7163 369.89 30.3963 370.85 30.3963 372.23V380H25.2663V363.26H30.3963V366.05ZM45.7183 380.24C44.0783 380.24 42.5983 379.89 41.2783 379.19C39.9783 378.49 38.9483 377.49 38.1883 376.19C37.4483 374.89 37.0783 373.37 37.0783 371.63C37.0783 369.91 37.4583 368.4 38.2183 367.1C38.9783 365.78 40.0183 364.77 41.3383 364.07C42.6583 363.37 44.1383 363.02 45.7783 363.02C47.4183 363.02 48.8983 363.37 50.2183 364.07C51.5383 364.77 52.5783 365.78 53.3383 367.1C54.0983 368.4 54.4783 369.91 54.4783 371.63C54.4783 373.35 54.0883 374.87 53.3083 376.19C52.5483 377.49 51.4983 378.49 50.1583 379.19C48.8383 379.89 47.3583 380.24 45.7183 380.24ZM45.7183 375.8C46.6983 375.8 47.5283 375.44 48.2083 374.72C48.9083 374 49.2583 372.97 49.2583 371.63C49.2583 370.29 48.9183 369.26 48.2383 368.54C47.5783 367.82 46.7583 367.46 45.7783 367.46C44.7783 367.46 43.9483 367.82 43.2883 368.54C42.6283 369.24 42.2983 370.27 42.2983 371.63C42.2983 372.97 42.6183 374 43.2583 374.72C43.9183 375.44 44.7383 375.8 45.7183 375.8ZM67.3998 363.08C69.3598 363.08 70.9198 363.72 72.0798 365C73.2598 366.26 73.8498 368 73.8498 370.22V380H68.7498V370.91C68.7498 369.79 68.4598 368.92 67.8798 368.3C67.2998 367.68 66.5198 367.37 65.5398 367.37C64.5598 367.37 63.7798 367.68 63.1998 368.3C62.6198 368.92 62.3298 369.79 62.3298 370.91V380H57.1998V363.26H62.3298V365.48C62.8498 364.74 63.5498 364.16 64.4298 363.74C65.3098 363.3 66.2998 363.08 67.3998 363.08ZM90.3147 367.34V371.6H77.1147V367.34H90.3147ZM99.947 363.05V367.31H106.817V371.27H99.947V375.89H107.717V380H94.817V358.94H107.717V363.05H99.947ZM121.248 363.08C123.208 363.08 124.768 363.72 125.928 365C127.108 366.26 127.698 368 127.698 370.22V380H122.598V370.91C122.598 369.79 122.308 368.92 121.728 368.3C121.148 367.68 120.368 367.37 119.388 367.37C118.408 367.37 117.628 367.68 117.048 368.3C116.468 368.92 116.178 369.79 116.178 370.91V380H111.048V363.26H116.178V365.48C116.698 364.74 117.398 364.16 118.278 363.74C119.158 363.3 120.148 363.08 121.248 363.08ZM130.242 371.6C130.242 369.88 130.562 368.37 131.202 367.07C131.862 365.77 132.752 364.77 133.872 364.07C134.992 363.37 136.242 363.02 137.622 363.02C138.722 363.02 139.722 363.25 140.622 363.71C141.542 364.17 142.262 364.79 142.782 365.57V357.8H147.912V380H142.782V377.6C142.302 378.4 141.612 379.04 140.712 379.52C139.832 380 138.802 380.24 137.622 380.24C136.242 380.24 134.992 379.89 133.872 379.19C132.752 378.47 131.862 377.46 131.202 376.16C130.562 374.84 130.242 373.32 130.242 371.6ZM142.782 371.63C142.782 370.35 142.422 369.34 141.702 368.6C141.002 367.86 140.142 367.49 139.122 367.49C138.102 367.49 137.232 367.86 136.512 368.6C135.812 369.32 135.462 370.32 135.462 371.6C135.462 372.88 135.812 373.9 136.512 374.66C137.232 375.4 138.102 375.77 139.122 375.77C140.142 375.77 141.002 375.4 141.702 374.66C142.422 373.92 142.782 372.91 142.782 371.63Z" fill="#FF64CB"/>
<path d="M177.175 526C178.192 526.217 179.008 526.725 179.625 527.525C180.242 528.308 180.55 529.208 180.55 530.225C180.55 531.692 180.033 532.858 179 533.725C177.983 534.575 176.558 535 174.725 535H166.55V517.45H174.45C176.233 517.45 177.625 517.858 178.625 518.675C179.642 519.492 180.15 520.6 180.15 522C180.15 523.033 179.875 523.892 179.325 524.575C178.792 525.258 178.075 525.733 177.175 526ZM170.825 524.55H173.625C174.325 524.55 174.858 524.4 175.225 524.1C175.608 523.783 175.8 523.325 175.8 522.725C175.8 522.125 175.608 521.667 175.225 521.35C174.858 521.033 174.325 520.875 173.625 520.875H170.825V524.55ZM173.975 531.55C174.692 531.55 175.242 531.392 175.625 531.075C176.025 530.742 176.225 530.267 176.225 529.65C176.225 529.033 176.017 528.55 175.6 528.2C175.2 527.85 174.642 527.675 173.925 527.675H170.825V531.55H173.975ZM182.179 528C182.179 526.567 182.446 525.308 182.979 524.225C183.529 523.142 184.271 522.308 185.204 521.725C186.138 521.142 187.179 520.85 188.329 520.85C189.313 520.85 190.171 521.05 190.904 521.45C191.654 521.85 192.229 522.375 192.629 523.025V521.05H196.904V535H192.629V533.025C192.213 533.675 191.629 534.2 190.879 534.6C190.146 535 189.288 535.2 188.304 535.2C187.171 535.2 186.138 534.908 185.204 534.325C184.271 533.725 183.529 532.883 182.979 531.8C182.446 530.7 182.179 529.433 182.179 528ZM192.629 528.025C192.629 526.958 192.329 526.117 191.729 525.5C191.146 524.883 190.429 524.575 189.579 524.575C188.729 524.575 188.004 524.883 187.404 525.5C186.821 526.1 186.529 526.933 186.529 528C186.529 529.067 186.821 529.917 187.404 530.55C188.004 531.167 188.729 531.475 189.579 531.475C190.429 531.475 191.146 531.167 191.729 530.55C192.329 529.933 192.629 529.092 192.629 528.025ZM199.147 528.025C199.147 526.575 199.439 525.308 200.022 524.225C200.622 523.142 201.447 522.308 202.497 521.725C203.564 521.142 204.781 520.85 206.147 520.85C207.897 520.85 209.356 521.308 210.522 522.225C211.706 523.142 212.481 524.433 212.847 526.1H208.297C207.914 525.033 207.172 524.5 206.072 524.5C205.289 524.5 204.664 524.808 204.197 525.425C203.731 526.025 203.497 526.892 203.497 528.025C203.497 529.158 203.731 530.033 204.197 530.65C204.664 531.25 205.289 531.55 206.072 531.55C207.172 531.55 207.914 531.017 208.297 529.95H212.847C212.481 531.583 211.706 532.867 210.522 533.8C209.339 534.733 207.881 535.2 206.147 535.2C204.781 535.2 203.564 534.908 202.497 534.325C201.447 533.742 200.622 532.908 200.022 531.825C199.439 530.742 199.147 529.475 199.147 528.025ZM223.659 535L219.409 529.15V535H215.134V516.5H219.409V526.725L223.634 521.05H228.909L223.109 528.05L228.959 535H223.659ZM241.338 524.45V528H230.338V524.45H241.338ZM249.365 520.875V524.425H255.09V527.725H249.365V531.575H255.84V535H245.09V517.45H255.84V520.875H249.365ZM267.115 520.9C268.749 520.9 270.049 521.433 271.015 522.5C271.999 523.55 272.49 525 272.49 526.85V535H268.24V527.425C268.24 526.492 267.999 525.767 267.515 525.25C267.032 524.733 266.382 524.475 265.565 524.475C264.749 524.475 264.099 524.733 263.615 525.25C263.132 525.767 262.89 526.492 262.89 527.425V535H258.615V521.05H262.89V522.9C263.324 522.283 263.907 521.8 264.64 521.45C265.374 521.083 266.199 520.9 267.115 520.9ZM274.611 528C274.611 526.567 274.878 525.308 275.411 524.225C275.961 523.142 276.703 522.308 277.636 521.725C278.569 521.142 279.611 520.85 280.761 520.85C281.678 520.85 282.511 521.042 283.261 521.425C284.028 521.808 284.628 522.325 285.061 522.975V516.5H289.336V535H285.061V533C284.661 533.667 284.086 534.2 283.336 534.6C282.603 535 281.744 535.2 280.761 535.2C279.611 535.2 278.569 534.908 277.636 534.325C276.703 533.725 275.961 532.883 275.411 531.8C274.878 530.7 274.611 529.433 274.611 528ZM285.061 528.025C285.061 526.958 284.761 526.117 284.161 525.5C283.578 524.883 282.861 524.575 282.011 524.575C281.161 524.575 280.436 524.883 279.836 525.5C279.253 526.1 278.961 526.933 278.961 528C278.961 529.067 279.253 529.917 279.836 530.55C280.436 531.167 281.161 531.475 282.011 531.475C282.861 531.475 283.578 531.167 284.161 530.55C284.761 529.933 285.061 529.092 285.061 528.025Z" fill="#6200E3"/>
<path d="M187.258 210.147C186.18 210.147 185.214 209.972 184.36 209.622C183.506 209.272 182.82 208.754 182.302 208.068C181.798 207.382 181.532 206.556 181.504 205.59H185.326C185.382 206.136 185.571 206.556 185.893 206.85C186.215 207.13 186.635 207.27 187.153 207.27C187.685 207.27 188.105 207.151 188.413 206.913C188.721 206.661 188.875 206.318 188.875 205.884C188.875 205.52 188.749 205.219 188.497 204.981C188.259 204.743 187.958 204.547 187.594 204.393C187.244 204.239 186.74 204.064 186.082 203.868C185.13 203.574 184.353 203.28 183.751 202.986C183.149 202.692 182.631 202.258 182.197 201.684C181.763 201.11 181.546 200.361 181.546 199.437C181.546 198.065 182.043 196.994 183.037 196.224C184.031 195.44 185.326 195.048 186.922 195.048C188.546 195.048 189.855 195.44 190.849 196.224C191.843 196.994 192.375 198.072 192.445 199.458H188.56C188.532 198.982 188.357 198.611 188.035 198.345C187.713 198.065 187.3 197.925 186.796 197.925C186.362 197.925 186.012 198.044 185.746 198.282C185.48 198.506 185.347 198.835 185.347 199.269C185.347 199.745 185.571 200.116 186.019 200.382C186.467 200.648 187.167 200.935 188.119 201.243C189.071 201.565 189.841 201.873 190.429 202.167C191.031 202.461 191.549 202.888 191.983 203.448C192.417 204.008 192.634 204.729 192.634 205.611C192.634 206.451 192.417 207.214 191.983 207.9C191.563 208.586 190.947 209.132 190.135 209.538C189.323 209.944 188.364 210.147 187.258 210.147ZM200.178 210.168C199.03 210.168 197.994 209.923 197.07 209.433C196.16 208.943 195.439 208.243 194.907 207.333C194.389 206.423 194.13 205.359 194.13 204.141C194.13 202.937 194.396 201.88 194.928 200.97C195.46 200.046 196.188 199.339 197.112 198.849C198.036 198.359 199.072 198.114 200.22 198.114C201.368 198.114 202.404 198.359 203.328 198.849C204.252 199.339 204.98 200.046 205.512 200.97C206.044 201.88 206.31 202.937 206.31 204.141C206.31 205.345 206.037 206.409 205.491 207.333C204.959 208.243 204.224 208.943 203.286 209.433C202.362 209.923 201.326 210.168 200.178 210.168ZM200.178 207.06C200.864 207.06 201.445 206.808 201.921 206.304C202.411 205.8 202.656 205.079 202.656 204.141C202.656 203.203 202.418 202.482 201.942 201.978C201.48 201.474 200.906 201.222 200.22 201.222C199.52 201.222 198.939 201.474 198.477 201.978C198.015 202.468 197.784 203.189 197.784 204.141C197.784 205.079 198.008 205.8 198.456 206.304C198.918 206.808 199.492 207.06 200.178 207.06ZM214.095 201.264H212.163V210H208.572V201.264H207.27V198.282H208.572V197.946C208.572 196.504 208.985 195.412 209.811 194.67C210.637 193.914 211.848 193.536 213.444 193.536C213.71 193.536 213.906 193.543 214.032 193.557V196.602C213.346 196.56 212.863 196.658 212.583 196.896C212.303 197.134 212.163 197.561 212.163 198.177V198.282H214.095V201.264ZM222.313 206.955V210H220.486C219.184 210 218.169 209.685 217.441 209.055C216.713 208.411 216.349 207.368 216.349 205.926V201.264H214.921V198.282H216.349V195.426H219.94V198.282H222.292V201.264H219.94V205.968C219.94 206.318 220.024 206.57 220.192 206.724C220.36 206.878 220.64 206.955 221.032 206.955H222.313ZM241.135 198.282L237.964 210H233.995L232.147 202.398L230.236 210H226.288L223.096 198.282H226.687L228.346 206.661L230.32 198.282H234.121L236.116 206.619L237.754 198.282H241.135ZM241.79 204.12C241.79 202.916 242.014 201.859 242.462 200.949C242.924 200.039 243.547 199.339 244.331 198.849C245.115 198.359 245.99 198.114 246.956 198.114C247.782 198.114 248.503 198.282 249.119 198.618C249.749 198.954 250.232 199.395 250.568 199.941V198.282H254.159V210H250.568V208.341C250.218 208.887 249.728 209.328 249.098 209.664C248.482 210 247.761 210.168 246.935 210.168C245.983 210.168 245.115 209.923 244.331 209.433C243.547 208.929 242.924 208.222 242.462 207.312C242.014 206.388 241.79 205.324 241.79 204.12ZM250.568 204.141C250.568 203.245 250.316 202.538 249.812 202.02C249.322 201.502 248.72 201.243 248.006 201.243C247.292 201.243 246.683 201.502 246.179 202.02C245.689 202.524 245.444 203.224 245.444 204.12C245.444 205.016 245.689 205.73 246.179 206.262C246.683 206.78 247.292 207.039 248.006 207.039C248.72 207.039 249.322 206.78 249.812 206.262C250.316 205.744 250.568 205.037 250.568 204.141ZM260.348 200.235C260.768 199.591 261.293 199.087 261.923 198.723C262.553 198.345 263.253 198.156 264.023 198.156V201.957H263.036C262.14 201.957 261.468 202.153 261.02 202.545C260.572 202.923 260.348 203.595 260.348 204.561V210H256.757V198.282H260.348V200.235ZM276.785 203.952C276.785 204.288 276.765 204.638 276.723 205.002H268.596C268.652 205.73 268.883 206.29 269.289 206.682C269.709 207.06 270.22 207.249 270.822 207.249C271.718 207.249 272.341 206.871 272.691 206.115H276.513C276.317 206.885 275.96 207.578 275.442 208.194C274.938 208.81 274.301 209.293 273.531 209.643C272.761 209.993 271.9 210.168 270.948 210.168C269.8 210.168 268.778 209.923 267.882 209.433C266.986 208.943 266.286 208.243 265.782 207.333C265.278 206.423 265.026 205.359 265.026 204.141C265.026 202.923 265.271 201.859 265.761 200.949C266.265 200.039 266.965 199.339 267.861 198.849C268.757 198.359 269.786 198.114 270.948 198.114C272.082 198.114 273.09 198.352 273.972 198.828C274.854 199.304 275.54 199.983 276.03 200.865C276.534 201.747 276.785 202.776 276.785 203.952ZM273.111 203.007C273.111 202.391 272.901 201.901 272.481 201.537C272.061 201.173 271.536 200.991 270.906 200.991C270.304 200.991 269.793 201.166 269.373 201.516C268.967 201.866 268.715 202.363 268.617 203.007H273.111ZM162.848 227.258C164.402 227.258 165.76 227.566 166.922 228.182C168.084 228.798 168.98 229.666 169.61 230.786C170.254 231.892 170.576 233.173 170.576 234.629C170.576 236.071 170.254 237.352 169.61 238.472C168.98 239.592 168.077 240.46 166.901 241.076C165.739 241.692 164.388 242 162.848 242H157.325V227.258H162.848ZM162.617 238.892C163.975 238.892 165.032 238.521 165.788 237.779C166.544 237.037 166.922 235.987 166.922 234.629C166.922 233.271 166.544 232.214 165.788 231.458C165.032 230.702 163.975 230.324 162.617 230.324H160.916V238.892H162.617ZM183.629 235.952C183.629 236.288 183.608 236.638 183.566 237.002H175.439C175.495 237.73 175.726 238.29 176.132 238.682C176.552 239.06 177.063 239.249 177.665 239.249C178.561 239.249 179.184 238.871 179.534 238.115H183.356C183.16 238.885 182.803 239.578 182.285 240.194C181.781 240.81 181.144 241.293 180.374 241.643C179.604 241.993 178.743 242.168 177.791 242.168C176.643 242.168 175.621 241.923 174.725 241.433C173.829 240.943 173.129 240.243 172.625 239.333C172.121 238.423 171.869 237.359 171.869 236.141C171.869 234.923 172.114 233.859 172.604 232.949C173.108 232.039 173.808 231.339 174.704 230.849C175.6 230.359 176.629 230.114 177.791 230.114C178.925 230.114 179.933 230.352 180.815 230.828C181.697 231.304 182.383 231.983 182.873 232.865C183.377 233.747 183.629 234.776 183.629 235.952ZM179.954 235.007C179.954 234.391 179.744 233.901 179.324 233.537C178.904 233.173 178.379 232.991 177.749 232.991C177.147 232.991 176.636 233.166 176.216 233.516C175.81 233.866 175.558 234.363 175.46 235.007H179.954ZM190.794 238.64L193.335 230.282H197.157L192.999 242H188.568L184.41 230.282H188.253L190.794 238.64ZM209.715 235.952C209.715 236.288 209.694 236.638 209.652 237.002H201.525C201.581 237.73 201.812 238.29 202.218 238.682C202.638 239.06 203.149 239.249 203.751 239.249C204.647 239.249 205.27 238.871 205.62 238.115H209.442C209.246 238.885 208.889 239.578 208.371 240.194C207.867 240.81 207.23 241.293 206.46 241.643C205.69 241.993 204.829 242.168 203.877 242.168C202.729 242.168 201.707 241.923 200.811 241.433C199.915 240.943 199.215 240.243 198.711 239.333C198.207 238.423 197.955 237.359 197.955 236.141C197.955 234.923 198.2 233.859 198.69 232.949C199.194 232.039 199.894 231.339 200.79 230.849C201.686 230.359 202.715 230.114 203.877 230.114C205.011 230.114 206.019 230.352 206.901 230.828C207.783 231.304 208.469 231.983 208.959 232.865C209.463 233.747 209.715 234.776 209.715 235.952ZM206.04 235.007C206.04 234.391 205.83 233.901 205.41 233.537C204.99 233.173 204.465 232.991 203.835 232.991C203.233 232.991 202.722 233.166 202.302 233.516C201.896 233.866 201.644 234.363 201.546 235.007H206.04ZM215.2 226.46V242H211.609V226.46H215.2ZM223.136 242.168C221.988 242.168 220.952 241.923 220.028 241.433C219.118 240.943 218.397 240.243 217.865 239.333C217.347 238.423 217.088 237.359 217.088 236.141C217.088 234.937 217.354 233.88 217.886 232.97C218.418 232.046 219.146 231.339 220.07 230.849C220.994 230.359 222.03 230.114 223.178 230.114C224.326 230.114 225.362 230.359 226.286 230.849C227.21 231.339 227.938 232.046 228.47 232.97C229.002 233.88 229.268 234.937 229.268 236.141C229.268 237.345 228.995 238.409 228.449 239.333C227.917 240.243 227.182 240.943 226.244 241.433C225.32 241.923 224.284 242.168 223.136 242.168ZM223.136 239.06C223.822 239.06 224.403 238.808 224.879 238.304C225.369 237.8 225.614 237.079 225.614 236.141C225.614 235.203 225.376 234.482 224.9 233.978C224.438 233.474 223.864 233.222 223.178 233.222C222.478 233.222 221.897 233.474 221.435 233.978C220.973 234.468 220.742 235.189 220.742 236.141C220.742 237.079 220.966 237.8 221.414 238.304C221.876 238.808 222.45 239.06 223.136 239.06ZM234.765 231.941C235.115 231.395 235.598 230.954 236.214 230.618C236.83 230.282 237.551 230.114 238.377 230.114C239.343 230.114 240.218 230.359 241.002 230.849C241.786 231.339 242.402 232.039 242.85 232.949C243.312 233.859 243.543 234.916 243.543 236.12C243.543 237.324 243.312 238.388 242.85 239.312C242.402 240.222 241.786 240.929 241.002 241.433C240.218 241.923 239.343 242.168 238.377 242.168C237.565 242.168 236.844 242 236.214 241.664C235.598 241.328 235.115 240.894 234.765 240.362V247.586H231.174V230.282H234.765V231.941ZM239.889 236.12C239.889 235.224 239.637 234.524 239.133 234.02C238.643 233.502 238.034 233.243 237.306 233.243C236.592 233.243 235.983 233.502 235.479 234.02C234.989 234.538 234.744 235.245 234.744 236.141C234.744 237.037 234.989 237.744 235.479 238.262C235.983 238.78 236.592 239.039 237.306 239.039C238.02 239.039 238.629 238.78 239.133 238.262C239.637 237.73 239.889 237.016 239.889 236.12ZM260.379 230.156C261.835 230.156 262.99 230.597 263.844 231.479C264.712 232.361 265.146 233.586 265.146 235.154V242H261.576V235.637C261.576 234.881 261.373 234.3 260.967 233.894C260.575 233.474 260.029 233.264 259.329 233.264C258.629 233.264 258.076 233.474 257.67 233.894C257.278 234.3 257.082 234.881 257.082 235.637V242H253.512V235.637C253.512 234.881 253.309 234.3 252.903 233.894C252.511 233.474 251.965 233.264 251.265 233.264C250.565 233.264 250.012 233.474 249.606 233.894C249.214 234.3 249.018 234.881 249.018 235.637V242H245.427V230.282H249.018V231.752C249.382 231.262 249.858 230.877 250.446 230.597C251.034 230.303 251.699 230.156 252.441 230.156C253.323 230.156 254.107 230.345 254.793 230.723C255.493 231.101 256.039 231.64 256.431 232.34C256.837 231.696 257.39 231.171 258.09 230.765C258.79 230.359 259.553 230.156 260.379 230.156ZM278.703 235.952C278.703 236.288 278.682 236.638 278.64 237.002H270.513C270.569 237.73 270.8 238.29 271.206 238.682C271.626 239.06 272.137 239.249 272.739 239.249C273.635 239.249 274.258 238.871 274.608 238.115H278.43C278.234 238.885 277.877 239.578 277.359 240.194C276.855 240.81 276.218 241.293 275.448 241.643C274.678 241.993 273.817 242.168 272.865 242.168C271.717 242.168 270.695 241.923 269.799 241.433C268.903 240.943 268.203 240.243 267.699 239.333C267.195 238.423 266.943 237.359 266.943 236.141C266.943 234.923 267.188 233.859 267.678 232.949C268.182 232.039 268.882 231.339 269.778 230.849C270.674 230.359 271.703 230.114 272.865 230.114C273.999 230.114 275.007 230.352 275.889 230.828C276.771 231.304 277.457 231.983 277.947 232.865C278.451 233.747 278.703 234.776 278.703 235.952ZM275.028 235.007C275.028 234.391 274.818 233.901 274.398 233.537C273.978 233.173 273.453 232.991 272.823 232.991C272.221 232.991 271.71 233.166 271.29 233.516C270.884 233.866 270.632 234.363 270.534 235.007H275.028ZM287.737 230.156C289.109 230.156 290.201 230.604 291.013 231.5C291.839 232.382 292.252 233.6 292.252 235.154V242H288.682V235.637C288.682 234.853 288.479 234.244 288.073 233.81C287.667 233.376 287.121 233.159 286.435 233.159C285.749 233.159 285.203 233.376 284.797 233.81C284.391 234.244 284.188 234.853 284.188 235.637V242H280.597V230.282H284.188V231.836C284.552 231.318 285.042 230.912 285.658 230.618C286.274 230.31 286.967 230.156 287.737 230.156ZM301.279 238.955V242H299.452C298.15 242 297.135 241.685 296.407 241.055C295.679 240.411 295.315 239.368 295.315 237.926V233.264H293.887V230.282H295.315V227.426H298.906V230.282H301.258V233.264H298.906V237.968C298.906 238.318 298.99 238.57 299.158 238.724C299.326 238.878 299.606 238.955 299.998 238.955H301.279Z" fill="#6200E3"/>
<defs>
<filter id="filter0_d" x="302" y="0" width="157" height="157" filterUnits="userSpaceOnUse" color-interpolation-filters="sRGB">
<feFlood flood-opacity="0" result="BackgroundImageFix"/>
<feColorMatrix in="SourceAlpha" type="matrix" values="0 0 0 0 0 0 0 0 0 0 0 0 0 0 0 0 0 0 127 0" result="hardAlpha"/>
<feOffset dy="4"/>
<feGaussianBlur stdDeviation="2"/>
<feComposite in2="hardAlpha" operator="out"/>
<feColorMatrix type="matrix" values="0 0 0 0 0 0 0 0 0 0 0 0 0 0 0 0 0 0 0.25 0"/>
<feBlend mode="normal" in2="BackgroundImageFix" result="effect1_dropShadow"/>
<feBlend mode="normal" in="SourceGraphic" in2="effect1_dropShadow" result="shape"/>
</filter>
<filter id="filter1_d" x="0" y="295" width="157" height="157" filterUnits="userSpaceOnUse" color-interpolation-filters="sRGB">
<feFlood flood-opacity="0" result="BackgroundImageFix"/>
<feColorMatrix in="SourceAlpha" type="matrix" values="0 0 0 0 0 0 0 0 0 0 0 0 0 0 0 0 0 0 127 0" result="hardAlpha"/>
<feOffset dy="4"/>
<feGaussianBlur stdDeviation="2"/>
<feComposite in2="hardAlpha" operator="out"/>
<feColorMatrix type="matrix" values="0 0 0 0 0 0 0 0 0 0 0 0 0 0 0 0 0 0 0.25 0"/>
<feBlend mode="normal" in2="BackgroundImageFix" result="effect1_dropShadow"/>
<feBlend mode="normal" in="SourceGraphic" in2="effect1_dropShadow" result="shape"/>
</filter>
<filter id="filter2_d" x="453" y="149" width="157" height="157" filterUnits="userSpaceOnUse" color-interpolation-filters="sRGB">
<feFlood flood-opacity="0" result="BackgroundImageFix"/>
<feColorMatrix in="SourceAlpha" type="matrix" values="0 0 0 0 0 0 0 0 0 0 0 0 0 0 0 0 0 0 127 0" result="hardAlpha"/>
<feOffset dy="4"/>
<feGaussianBlur stdDeviation="2"/>
<feComposite in2="hardAlpha" operator="out"/>
<feColorMatrix type="matrix" values="0 0 0 0 0 0 0 0 0 0 0 0 0 0 0 0 0 0 0.25 0"/>
<feBlend mode="normal" in2="BackgroundImageFix" result="effect1_dropShadow"/>
<feBlend mode="normal" in="SourceGraphic" in2="effect1_dropShadow" result="shape"/>
</filter>
<filter id="filter3_d" x="302" y="303" width="157" height="157" filterUnits="userSpaceOnUse" color-interpolation-filters="sRGB">
<feFlood flood-opacity="0" result="BackgroundImageFix"/>
<feColorMatrix in="SourceAlpha" type="matrix" values="0 0 0 0 0 0 0 0 0 0 0 0 0 0 0 0 0 0 127 0" result="hardAlpha"/>
<feOffset dy="4"/>
<feGaussianBlur stdDeviation="2"/>
<feComposite in2="hardAlpha" operator="out"/>
<feColorMatrix type="matrix" values="0 0 0 0 0 0 0 0 0 0 0 0 0 0 0 0 0 0 0.25 0"/>
<feBlend mode="normal" in2="BackgroundImageFix" result="effect1_dropShadow"/>
<feBlend mode="normal" in="SourceGraphic" in2="effect1_dropShadow" result="shape"/>
</filter>
<filter id="filter4_d" x="149" y="146" width="157" height="157" filterUnits="userSpaceOnUse" color-interpolation-filters="sRGB">
<feFlood flood-opacity="0" result="BackgroundImageFix"/>
<feColorMatrix in="SourceAlpha" type="matrix" values="0 0 0 0 0 0 0 0 0 0 0 0 0 0 0 0 0 0 127 0" result="hardAlpha"/>
<feOffset dy="4"/>
<feGaussianBlur stdDeviation="2"/>
<feComposite in2="hardAlpha" operator="out"/>
<feColorMatrix type="matrix" values="0 0 0 0 0 0 0 0 0 0 0 0 0 0 0 0 0 0 0.25 0"/>
<feBlend mode="normal" in2="BackgroundImageFix" result="effect1_dropShadow"/>
<feBlend mode="normal" in="SourceGraphic" in2="effect1_dropShadow" result="shape"/>
</filter>
<filter id="filter5_d" x="149" y="452" width="157" height="157" filterUnits="userSpaceOnUse" color-interpolation-filters="sRGB">
<feFlood flood-opacity="0" result="BackgroundImageFix"/>
<feColorMatrix in="SourceAlpha" type="matrix" values="0 0 0 0 0 0 0 0 0 0 0 0 0 0 0 0 0 0 127 0" result="hardAlpha"/>
<feOffset dy="4"/>
<feGaussianBlur stdDeviation="2"/>
<feComposite in2="hardAlpha" operator="out"/>
<feColorMatrix type="matrix" values="0 0 0 0 0 0 0 0 0 0 0 0 0 0 0 0 0 0 0.25 0"/>
<feBlend mode="normal" in2="BackgroundImageFix" result="effect1_dropShadow"/>
<feBlend mode="normal" in="SourceGraphic" in2="effect1_dropShadow" result="shape"/>
</filter>
</defs>
</svg>
